<svg version="1.2" xmlns="http://www.w3.org/2000/svg" viewBox="0 0 2048 2048" width="2048" height="2048">
	<title>Untitled_Artwork</title>
	<style>
		.s0 { fill: #9f7a3c } 
		.s1 { fill: #8b692e } 
		.s2 { fill: #e8bb6c } 
		.s3 { fill: #f5cf8b } 
		.s4 { fill: #c2984e } 
		.s5 { fill: #cba460 } 
	</style>
	<g id="Background">
		<path id="Path 0" class="s0" d="m333.4 1022.3c-0.3 2.3-0.2 5.5 0.4 7.2 0.9 2.6 1.1 2.1 1.1-4.2 0.1-4-0.1-7.3-0.3-7.3-0.3 0-0.8 1.9-1.2 4.3z"/>
		<path id="Path 1" class="s1" d="m982 266c-6.3 0.5-17.1 1.4-24 2-6.9 0.6-19.3 2-27.5 3.1-8.3 1-23.1 3.3-33 4.9-9.9 1.7-27.2 5.1-38.5 7.6-11.3 2.6-30.4 7.5-42.5 10.9-12.1 3.5-29.2 8.8-38 11.8-8.8 3-23.6 8.5-33 12.2-9.4 3.7-23.3 9.5-31 13-7.7 3.4-21.4 10-30.5 14.5-9.1 4.5-20.5 10.5-25.5 13.3-5 2.8-14.4 8.2-21 12-6.6 3.9-21 12.9-32 20.2-11 7.2-26.5 18-34.5 24-8 6-18.8 14.3-24 18.5-5.2 4.2-13.3 11-18 15-4.7 4-16.1 14.3-25.5 23-9.4 8.7-24 23.4-32.6 32.7-8.6 9.2-18.9 20.6-22.9 25.3-4 4.7-10.8 12.8-15 18-4.2 5.2-11.7 14.9-16.7 21.5-4.9 6.6-13.7 19-19.5 27.5-5.8 8.5-12.9 19.3-15.8 24-3 4.7-9.2 15-13.8 23-4.6 8-12.4 22.1-17.3 31.5-4.8 9.4-12.4 24.9-16.7 34.5-4.4 9.6-10.9 24.9-14.5 34-3.6 9.1-9.3 24.6-12.7 34.5-3.3 9.9-8.1 24.7-10.5 33-2.4 8.2-6 21.3-7.9 29-1.9 7.7-5 21.6-7 31-1.9 9.4-4.6 24.2-6 33-1.4 8.8-3.4 24.1-4.5 34-1.1 9.9-2.5 24.3-3.1 32-0.6 7.7-1.3 26.1-1.6 41-0.4 15.8-0.2 36.1 0.5 49 0.6 12.1 2 30.8 3.1 41.5 1.1 10.7 3.2 26.9 4.6 36 1.4 9.1 4.1 24.4 5.9 34 1.9 9.6 5.3 24.9 7.5 34 2.3 9.1 5.5 21.2 7.1 27 1.7 5.8 5 16.6 7.4 24 2.4 7.4 6.4 19.1 8.8 26 2.5 6.9 6.4 17.2 8.7 23 2.3 5.8 6.9 16.8 10.3 24.5 3.3 7.7 10 21.9 14.8 31.5 4.7 9.6 12.1 23.8 16.4 31.5 4.3 7.7 10.5 18.5 13.8 24 3.3 5.5 11 17.7 17.2 27 6.2 9.3 16.1 23.5 22.1 31.5 5.9 8 14.3 19 18.8 24.5 4.4 5.5 13.5 16.3 20.1 24 6.7 7.7 18.9 21 27.2 29.5 8.3 8.5 21.7 21.7 29.9 29.2 8.2 7.5 21.2 18.9 28.9 25.3 7.7 6.5 21 17 29.5 23.4 8.5 6.4 22.9 16.6 32 22.7 9.1 6.1 21.7 14.3 28 18.1 6.3 3.9 16.2 9.7 22 13 5.8 3.4 17.9 9.9 27 14.6 9.1 4.7 24.4 12.2 34 16.5 9.6 4.4 25.1 11 34.5 14.7 9.4 3.7 27.6 10.3 40.5 14.6 12.9 4.3 32 10.1 42.5 12.9 10.5 2.8 26.4 6.6 35.5 8.6 9.1 2 25.5 5.1 36.5 6.9 11 1.8 28.3 4.3 38.5 5.4 10.2 1.1 25.7 2.6 34.5 3.3 9.1 0.8 32.1 1.3 53.5 1.3 27.8 0 42.8-0.5 58-1.8 11.3-1 27.7-2.7 36.5-3.8 8.8-1.1 23.9-3.4 33.5-5 9.6-1.6 26.7-5 38-7.5 11.3-2.6 30.4-7.5 42.5-10.9 12.1-3.5 28.1-8.4 35.5-11 7.4-2.6 20-7.1 28-10.2 8-3.1 21.3-8.5 29.5-12.1 8.3-3.5 23.1-10.4 33-15.3 9.9-4.8 25.4-13 34.5-18 9.1-5.1 23-13.2 31-18.2 8-4.9 19.2-12.2 25-16 5.8-3.9 16.1-11.1 23-16.1 6.9-5 19.1-14.4 27.3-20.8 8.1-6.5 20.2-16.6 26.9-22.5 6.8-5.9 21.5-19.7 32.6-30.8 11.2-11 22.3-22.2 24.5-24.8 2.3-2.6 3.9-5.1 3.5-5.5-0.4-0.4-2.7 0.5-5 2-2.4 1.4-6.1 4.5-8.3 6.7-2.2 2.3-4.2 4.1-4.5 4.1-0.3 0-3.9 3.1-8 7-4.1 3.8-13.4 11.8-20.5 17.7-7.2 6-15.4 12.5-18.3 14.6-2.8 2-5.2 4.2-5.2 4.7 0 0.5-0.6 1-1.2 1-0.7 0-2.7 1.2-4.3 2.7-1.7 1.6-3.5 3-4 3.2-0.6 0.2-3.6 2.2-6.8 4.5-3.1 2.3-5.7 4.4-5.7 4.9 0 0.4-0.5 0.7-1 0.7-0.5 0-5.2 2.8-10.2 6.2-5.1 3.4-9.5 6.4-9.8 6.8-0.3 0.4-1 0.9-1.5 1.1-0.6 0.2-6.9 4-14 8.4-7.2 4.3-13.2 8.2-13.5 8.5-0.3 0.3-2.6 1.6-5.3 3-2.6 1.4-4.7 2.8-4.7 3.3 0 0.4-0.3 0.6-0.7 0.5-0.5-0.1-2.4 0.6-4.3 1.6-1.9 1-3.8 2.4-4.2 3-0.4 0.6-0.8 0.8-0.8 0.4 0-0.5-3 0.9-6.7 2.9-3.8 2-6.9 4.1-7 4.5-0.2 0.4-0.8 0.6-1.3 0.3-0.5-0.3-1 0-1 0.5 0 0.5-0.3 0.9-0.7 0.8-0.5 0-4.8 1.8-9.8 4.1-5 2.4-9.3 4.8-9.7 5.5-0.4 0.6-0.8 0.8-0.8 0.4 0-0.5-3.7 1.1-8.2 3.4-4.6 2.3-8.5 4.2-8.8 4.3-0.3 0-2.2 0.7-4.3 1.5-2 0.8-3.7 2-3.7 2.5 0 0.5-0.3 0.7-0.7 0.3-0.5-0.4-2-0.3-3.5 0.3-1.6 0.5-2.8 1.4-2.8 1.9 0 0.5-0.8 1-1.8 1-1 0-2.2 0.3-2.6 0.8-0.4 0.4-1.3 0.8-1.9 0.8-0.7 0.1-2.9 0.9-4.9 1.8-2.1 0.9-3.9 1.5-4.1 1.4-0.2-0.2-1.5 0.5-3 1.5-1.5 0.9-2.7 1.5-2.7 1.2 0-0.3-1 0-2.2 0.7-1.3 0.7-2.5 1.3-2.8 1.3-0.3 0.1-2 0.4-3.7 0.8-1.8 0.4-3.3 1-3.3 1.5 0 0.4-0.6 0.7-1.2 0.8-0.7 0-9 2.6-18.3 5.8-9.3 3.2-17.7 6-18.5 6.3-0.8 0.3-2.2 0.7-3 0.9-0.8 0.2-5.9 1.6-11.3 3.1-5.3 1.5-9.7 3.1-9.7 3.6 0 0.4-0.9 0.5-2 0.2-1.1-0.3-2.2 0-2.5 0.5-0.3 0.5-1.2 0.8-2 0.5-0.8-0.3-1.7 0-2 0.5-0.3 0.5-0.8 0.8-1.2 0.6-0.5-0.3-4.2 0.4-8.3 1.5-4.1 1.1-8.4 2.2-9.5 2.5-1.1 0.3-3.3 0.8-5 1.1-1.7 0.3-6.8 1.4-11.5 2.4-4.7 1.1-9.8 2.2-11.5 2.4-1.7 0.3-8.2 1.4-14.5 2.5-6.3 1.1-12.8 2.2-14.5 2.4-1.7 0.2-4.8 0.7-7 0.9-2.2 0.3-6 0.8-8.5 1.1-2.5 0.3-13.5 1.5-24.5 2.6-11 1.2-22.7 2.4-26 2.6-3.3 0.2-21.3 0.6-40 0.8-18.7 0.3-38 0.1-43-0.4-5-0.5-15.5-1.4-23.5-2.1-8-0.6-16.3-1.2-18.5-1.4-2.2-0.2-11.9-1.5-21.5-2.8-9.6-1.4-18.2-2.5-19-2.6-0.8-0.1-2.6-0.3-4-0.5-1.4-0.2-3.6-0.6-5-1-1.4-0.3-4.1-0.8-6-0.9-1.9-0.2-4-0.7-4.5-1-0.5-0.3-3-0.8-5.5-1.2-2.5-0.3-5.4-0.8-6.5-1-1.1-0.2-7.9-1.8-15-3.5-7.1-1.7-13.7-3.2-14.5-3.4-0.8-0.1-4-1-7-2-3-0.9-6.6-1.8-8-2-1.4-0.2-3.9-0.8-5.5-1.5-1.6-0.6-3.2-0.9-3.5-0.6-0.3 0.3-1 0.1-1.5-0.4-0.5-0.5-4.4-1.8-8.5-3-4.1-1.1-12.1-3.6-17.7-5.6-5.7-1.9-10.3-3.2-10.3-2.7 0.1 0.4-0.6 0-1.5-0.8-0.9-0.8-1.5-1-1.5-0.5 0 0.5-0.5 0.4-1.2-0.2-0.7-0.7-1.6-1-2.1-0.5-0.4 0.4-0.7 0.1-0.7-0.5 0-0.7-0.7-1.1-1.5-0.8-0.8 0.3-1.6 0.1-1.7-0.3-0.2-0.5-4.6-2.4-9.8-4.2-5.2-1.9-9.7-3.5-10-3.6-0.3 0-2.1-0.8-4-1.7-1.9-0.8-8.3-3.6-14.2-6.1-6-2.5-11-4.3-11.3-3.8-0.3 0.4-0.5 0.1-0.5-0.5 0-0.7-0.5-1.3-1-1.3-0.5 0-10.8-4.7-22.7-10.5-12-5.8-22.1-10.5-22.5-10.5-0.5 0-0.8-0.3-0.8-0.7 0-0.5-2.9-2.3-6.5-4-3.6-1.8-6.8-3.3-7.2-3.2-0.5 0-1-0.3-1.3-0.8-0.3-0.5-6.6-4.5-14-8.9-7.4-4.3-13.7-7.7-14-7.6-0.3 0.2-0.8-0.3-1.2-1.2-0.5-0.9-1.3-1.6-1.8-1.6-0.5 0-4.6-2.5-9-5.5-4.4-3-8-5.3-8-5 0 0.3-1.2-0.6-2.7-2-1.6-1.4-3.1-2.3-3.5-2-0.5 0.3-1-0.2-1.3-1-0.3-0.8-1-1.3-1.5-1-0.5 0.3-1 0.2-1-0.2 0-0.5-2.7-2.7-6-5-3.3-2.4-6.2-4.3-6.5-4.3-0.3 0-1.7-1.1-3.2-2.5-1.6-1.4-3.3-2.6-3.8-2.5-0.5 0-1.6-0.9-2.2-2-0.7-1.1-1.8-1.8-2.3-1.5-0.5 0.3-1 0.2-1-0.2 0.1-0.5-2.5-2.8-5.7-5.3-3.2-2.4-5.9-4.3-6-4.2-0.2 0.1-1.5-1-3-2.4-1.6-1.5-6.4-5.5-10.8-9.1-4.4-3.5-9.8-8-12-10.1-2.2-2-8.1-7.3-13-11.7-5-4.4-10.5-9.5-12.2-11.2-1.8-1.8-3.4-3.3-3.5-3.3-0.2 0-6.4-6-13.8-13.2-7.4-7.3-12.8-12.9-12-12.4 0.8 0.5-1.3-2-4.8-5.5-3.5-3.5-6.2-6.6-6.2-6.9 0.1-0.3-1.7-2.2-4-4.3-2.2-2-4-3.9-4-4.2 0-0.3-3.9-5.1-8.6-10.8-4.7-5.6-9.2-10.7-10-11.2-0.7-0.5-1.3-1.6-1.4-2.3 0-0.6-0.9-1.8-2-2.5-1.1-0.6-2-1.5-2-2 0-0.4-2.4-3.9-5.2-7.7-2.9-3.9-5.6-7-6-7-0.5 0-0.8-0.7-0.8-1.5 0-0.8-0.7-1.7-1.5-2-0.8-0.3-1.5-1-1.5-1.5 0-0.5-1.5-3-3.2-5.5-1.8-2.5-3.6-4.5-4-4.5-0.5 0-0.6-0.5-0.3-1 0.3-0.5 0.1-1.1-0.3-1.3-0.4-0.1-5-6.7-10.2-14.7-5.1-8-10.3-15.3-11.4-16.3-1.2-1-1.4-1.6-0.6-1.2 1.2 0.5 1.2 0.4-0.1-0.7-0.9-0.7-1.7-1.6-1.7-2.1-0.1-0.4-0.2-1.2-0.2-1.7 0-0.5-0.6-0.7-1.2-0.3-0.8 0.5-1 0.4-0.6-0.2 0.4-0.5-1.1-4.2-3.3-8-2.3-3.8-4.6-7.3-5.2-7.7-0.7-0.4-0.9-0.8-0.4-0.8 0.4 0-1.2-3.3-3.4-7.3-2.3-3.9-4.7-7.5-5.3-7.9-0.6-0.4-0.8-0.8-0.3-0.8 0.4 0-0.3-1.9-1.4-4.3-1.2-2.3-2.7-4.9-3.3-5.7-0.7-0.8-3.8-7.1-7.1-14-3.2-6.9-6.1-12.7-6.4-13-0.3-0.3-0.7-1.2-0.9-2-0.2-0.8-2.5-6.5-5.2-12.5-2.6-6-5.8-13.3-7.1-16-1.2-2.8-2.3-5.2-2.4-5.5-0.1-0.3-0.8-2.4-1.6-4.8-0.8-2.3-1.7-4.2-2.1-4.2-0.5 0-0.7-0.3-0.6-0.8 0.1-0.4-0.1-2.2-0.5-4-0.4-1.7-1.1-3.2-1.7-3.2-0.6 0-0.8-0.5-0.5-1 0.3-0.5-0.5-3.6-1.7-6.8-1.2-3.1-2.7-6-3.3-6.4-0.6-0.5-0.6-0.8 0-0.7 0.6 0 0.4-0.6-0.2-1.3-0.7-0.7-1.1-1.5-0.8-1.8 0.2-0.3-1.5-6.5-3.8-13.8-2.3-7.3-4.4-13.1-4.7-12.8-0.3 0.2-0.6-1-0.7-2.7-0.1-1.8-0.6-3.4-1.3-3.7-0.6-0.3-1-1-0.9-1.5 0.1-0.5 0.1-2.2 0-3.7 0-1.6-0.5-2.6-1.1-2.3-0.6 0.3-0.8-0.5-0.5-2 0.3-1.4 0.1-2.5-0.5-2.5-0.6 0-0.9-0.6-0.8-1.2 0-0.7 0-2.3 0-3.5-0.1-1.3-0.5-2.1-0.9-1.9-0.5 0.2-0.6-0.8-0.4-2.3 0.3-1.5 0.1-2.3-0.5-2-0.5 0.4-1-1.3-1.1-4-0.2-2.5-0.7-5.1-1.2-5.6-0.6-0.5-0.7-1.7-0.3-2.5 0.4-0.9 0.3-1.2-0.3-0.8-0.6 0.3-1.1-0.7-1.2-2.3-0.2-1.6-0.4-3.6-0.5-4.4-0.2-0.8-0.5-1.5-0.8-1.5-0.3 0-0.4-1.4-0.2-3 0.1-1.7-0.1-3-0.5-3-0.5 0-0.9-0.9-1-2-0.2-1.1-0.4-3.3-0.5-5-0.2-1.7-0.6-3-1-3-0.5 0-0.6-0.7-0.3-1.5 0.3-0.8 0.2-2.1-0.2-2.7-0.4-0.7-0.9-3.1-1.1-5.3-0.2-2.2-0.5-4.6-0.5-5.3-0.1-0.6-0.5-1.2-0.9-1.2-0.5 0-0.6-0.6-0.3-1.3 0.3-0.6 0.1-3.4-0.5-6.2-0.6-2.7-1.3-7.9-1.6-11.5-0.3-3.6-0.9-6.7-1.3-7-0.4-0.3-0.7-2.4-0.7-4.7 0.1-2.4-0.1-4.3-0.4-4.3-0.3 0-0.4-1.7-0.3-3.8 0-2-0.1-4.2-0.5-4.7-0.3-0.5-0.6-3-0.8-5.5-0.1-2.5-0.2-4.5-0.3-4.5-0.1 0-0.3-2.8-0.4-6.3-0.1-3.4-0.4-6.2-0.7-6.2-0.3 0-0.5-2.6-0.6-5.7 0-3.2-0.4-13.9-0.8-23.8-0.4-9.9-0.7-19.8-0.7-22 0-2.2 0.3-11.6 0.7-21 0.5-9.4 0.8-20.3 0.8-24.3 0.1-3.9 0.4-7.2 0.9-7.2 0.4 0 0.6-2.6 0.5-5.7-0.1-3.2 0.1-6.4 0.5-7 0.4-0.7 0.6-3 0.5-5-0.1-2.1 0-4.3 0.3-4.8 0.3-0.5 0.5-2.7 0.5-4.7-0.1-2.1 0.2-3.8 0.7-3.8 0.4 0 0.6-1.9 0.4-4.2-0.2-2.4 0-4.8 0.4-5.3 0.4-0.5 1-3.7 1.3-7 0.4-3.3 1.5-10.8 2.6-16.7 1.1-6 1.8-11.3 1.5-11.8-0.3-0.5-0.1-1.2 0.5-1.5 0.6-0.3 1-1.5 1-2.7 0-1.3 0.1-3.2 0.3-4.3 0.2-1.1 0.8-2.8 1.3-3.8 0.5-0.9 0.6-2.1 0.2-2.5-0.5-0.4-0.3-1.3 0.2-1.9 0.6-0.7 0.8-1.9 0.6-2.5-0.3-0.7 0-1.8 0.5-2.3 0.6-0.5 1.1-2.9 1.2-5.2 0.1-2.4 0.6-3.8 1.2-3.5 0.6 0.4 0.7-0.1 0.2-1.3-0.4-1.1-0.3-2.6 0.3-3.2 0.5-0.7 0.8-2.2 0.5-3.3-0.3-1.4-0.1-1.8 0.7-1.2 0.8 0.5 1.1-0.1 0.7-1.9-0.2-1.5-0.2-2.5 0.1-2.4 0.3 0.2 1.2-2.3 2-5.4 0.8-3.2 1.3-5.7 1-5.6-0.3 0.2-0.4-0.8-0.2-2.1 0.1-1.3 0.6-2.2 1.2-1.9 0.6 0.3 1.1-0.5 1.2-1.7 0-1.3 0.2-2.8 0.3-3.3 0.1-0.5 0.7-2.4 1.4-4 0.7-1.6 1.3-3.9 1.4-5 0.1-1.1 0.4-2.2 0.7-2.5 0.3-0.3 3.2-8.6 6.5-18.5 3.3-9.9 5.9-18.6 5.8-19.3-0.2-0.6 0.1-1.2 0.7-1.2 0.6 0 1.3-1.2 1.7-2.7 0.4-1.6 0.7-3.3 0.8-3.8 0-0.5 0.3-1.5 0.7-2 0.3-0.5 2.1-4.6 3.8-9 1.8-4.4 3.3-8.5 3.4-9 0.1-0.5 1-2.5 1.9-4.2 0.9-1.8 1.4-3.3 1-3.3-0.5 0-0.3-0.4 0.2-0.8 0.6-0.4 2.5-4 4.3-7.9 1.8-4.1 2.9-7.9 2.5-8.5q-0.8-1.3 0.5-0.5c0.8 0.4 1.4-0.1 1.8-1.5 0.4-1.3 3.1-7.1 6-13 3-6 5.1-11 4.7-11.3-0.5-0.3-0.2-0.5 0.5-0.5 0.6 0 1.5-1 1.9-2.2 0.4-1.3 0.6-2.6 0.5-3-0.1-0.5 0.4-0.8 1.1-0.8 0.6 0 0.9-0.2 0.5-0.5-0.5-0.3-0.1-1.2 0.7-2 0.8-0.8 1.3-2 1-2.5-0.3-0.5-0.1-1 0.5-1 0.6 0 0.8-0.5 0.5-1-0.3-0.5 0-1.1 0.5-1.2 0.6-0.2 1.3-1.2 1.5-2.3 0.2-1.1 0.4-2.3 0.4-2.7 0.1-0.5 0.5-0.6 1.1-0.3 0.6 0.3 1 0 1-0.5 0-0.5 0-1.3-0.1-1.7 0-0.5 0.4-1 0.9-1.3 0.6-0.3 3.5-4.9 6.6-10.2 3.1-5.4 5.6-10.5 5.6-11.3 0-0.8 0.8-1.9 1.8-2.5 0.9-0.5 1.3-0.9 0.7-1-0.6 0-0.1-0.7 1-1.6 1.1-0.8 1.3-1.2 0.5-0.8-0.8 0.4 0-0.6 1.8-2.4 1.7-1.8 3.2-3.7 3.2-4.2 0-0.5-0.1-1.2-0.2-1.5-0.2-0.2 0.6-1.1 1.7-1.9 1.1-0.9 1.7-1.6 1.3-1.6-0.5 0 0.3-1.2 1.7-2.7 1.4-1.6 2.3-3.1 2-3.5-0.3-0.5 0.2-1 1-1.3 0.8-0.3 1.3-1 1-1.5-0.3-0.5 0.3-1.2 1.3-1.5 0.9-0.3 1.4-0.7 1-1-0.5-0.3 0.3-1.7 1.7-3.2 1.4-1.6 2.3-3.1 2-3.5-0.3-0.5 0.3-1 1.3-1.3 0.9-0.3 1.4-0.7 1-1-0.5-0.3 0.5-2 2.2-3.7 1.6-1.8 3.5-4.4 4.2-5.8 0.7-1.4 1.9-2.8 2.5-3.2 0.7-0.5 1.3-1.5 1.3-2.3 0-0.8 0.4-1.6 0.9-1.7 0.5-0.2 4.1-4.5 8-9.5 3.9-5.1 6.8-9.3 6.4-9.3-0.5 0.1 0.4-0.8 2-2 1.5-1.1 2.7-2.3 2.7-2.7-0.1-0.5 1.7-2.8 4-5.3 2.2-2.5 4-4.8 4-5.2 0-0.5 1.4-1.9 3-3.3 1.6-1.4 3-3 3-3.5 0-0.5 1.6-2.4 3.5-4 1.9-1.6 3.3-3.5 3-4-0.3-0.5-0.1-1 0.5-1 0.5 0 2.7-1.8 4.8-4.1 2-2.2 3.7-4.4 3.8-4.7 0-0.4 4.7-5.3 10.5-11 5.7-5.6 9.9-10.2 9.4-10.2-0.5 0.1-0.4-0.6 0.3-1.5 0.7-0.8 1.7-1.2 2.5-0.8 0.7 0.5 0.9 0.4 0.5-0.2-0.4-0.6 0.2-1.9 1.5-3l2.2-2c-2.2 3.1 1.7-0.6 7.3-6.2 5.6-5.7 10.5-10.3 11-10.3 0.4 0 2.5-1.7 4.7-3.9 2.2-2.1 6-5.7 8.4-8 2.4-2.2 4.7-4.1 5.2-4.1 0.5 0 1.8-1.1 2.9-2.5 1.1-1.4 2.5-2.5 3-2.5 0.5 0 1.9-1.1 3-2.5 1.1-1.4 2.2-2.5 2.5-2.5 0.3 0 1.6-0.8 3-1.7 1.3-1 2.1-2.1 1.7-2.6-0.4-0.4 0.1-0.7 1.1-0.7 0.9 0 2.4-1 3.2-2.2 0.9-1.3 1.8-2.2 2-2 0.3 0.1 3.9-2.4 8-5.5 4.2-3.2 7.6-6.1 7.5-6.5 0-0.5 0.5-0.6 1-0.3 0.5 0.3 1.7-0.5 2.5-1.7 0.9-1.3 1.7-2.1 1.9-1.8 0.2 0.3 2.9-1.3 6-3.5 3-2.2 5.6-4.3 5.6-4.7 0-0.5 0.6-0.8 1.3-0.8 0.6 0.1 2.4-1.1 4-2.5 1.5-1.4 2.7-2.2 2.7-1.7 0 0.4 0.7-0.2 1.5-1.3 0.9-1.1 1.5-1.6 1.5-1 0.1 0.6 0.7 0.1 1.5-1 0.9-1.1 1.5-1.7 1.5-1.2 0 0.4 4.2-2.1 9.3-5.5 5-3.4 9.3-6.5 9.5-7 0.1-0.4 0.7-0.6 1.2-0.3 0.5 0.3 1.6-0.2 2.3-1 0.6-0.9 1.7-1.6 2.2-1.5 0.5 0 2-0.9 3.3-2 1.2-1.1 2.2-1.8 2.2-1.5 0 0.3 1.9-0.7 4.3-2.1 2.3-1.5 4.4-3.1 4.7-3.6 0.3-0.5 0.8-0.9 1.3-0.9 0.4 0.1 1.8-0.5 3.2-1.1 1.4-0.7 2.5-1.7 2.5-2.3 0-0.6 0.3-0.7 0.7-0.3 0.5 0.4 2.4-0.2 4.3-1.4 1.9-1.2 3.8-2.7 4.2-3.2 0.4-0.6 0.8-0.8 0.8-0.3 0 0.4 3.9-1.4 8.8-4 4.8-2.6 8.9-5.1 9.2-5.6 0.3-0.5 1-0.8 1.5-0.7 0.5 0 2.7-0.7 4.8-1.7 2.1-1 3.7-2.1 3.7-2.5 0-0.5 0.5-0.6 1-0.3 0.5 0.3 1-0.1 1-0.7 0-0.7 0.3-1 0.7-0.6 0.5 0.4 3.8-0.8 7.6-2.7 3.7-1.9 6.9-3.5 7.2-3.5 0.3 0 2.9-1.2 5.8-2.7 2.8-1.5 5.4-2.7 5.7-2.8 0.3 0 2.2-0.7 4.3-1.5 2-0.8 3.7-1.7 3.7-2 0-0.3 1-0.6 2.2-0.7 1.3-0.2 2.6-0.8 3-1.5 0.4-0.7 0.8-1 0.8-0.5 0 0.4 1 0.2 2.3-0.5 1.2-0.7 2.7-1.3 3.2-1.4 0.5-0.1 2.6-0.8 4.5-1.6 1.9-0.8 4-1.6 4.5-1.7 0.5-0.2 1.9-0.8 3-1.4 1.1-0.6 2.5-1.2 3-1.3 0.5-0.1 3.9-1.2 7.5-2.5 3.6-1.2 6.8-2.8 7.2-3.3 0.4-0.6 0.8-0.8 0.8-0.3 0 0.4 1.9 0 4.3-0.8 2.3-0.9 4.9-1.8 5.7-2.2 0.8-0.3 1.8-0.8 2.3-1 0.4-0.1 0.8-0.3 1-0.4 0.1 0 0.9-0.2 1.7-0.3 0.8-0.2 5.3-1.5 10-3 4.7-1.5 9.2-3 10-3.3 0.8-0.4 1.7-0.7 2-0.8 0.3 0 2.1-0.5 4-0.9 1.9-0.5 4-1.1 4.5-1.4 0.5-0.4 2.1-0.8 3.5-1 1.4-0.2 3-0.8 3.5-1.3 0.5-0.5 1.3-0.6 1.7-0.1 0.4 0.4 1.3 0.1 2-0.5 0.7-0.7 1.5-1.1 1.8-0.8 0.3 0.3 3-0.3 6-1.2 3-0.9 5.7-1.6 6-1.5 0.3 0 3.9-0.8 8-1.9 4.1-1.1 8.6-2.2 10-2.4 1.4-0.3 3.6-0.8 5-1.1 1.4-0.3 2.6-0.5 2.8-0.5 0.1 0.1 1.9-0.4 4-0.9 2-0.6 5.1-1.3 6.7-1.5 1.6-0.3 5.3-0.9 8-1.5 2.8-0.6 7.3-1.3 10-1.6 2.8-0.3 5.7-1 6.5-1.5 0.8-0.4 1.7-0.7 2-0.4 0.3 0.2 4.8-0.3 10-1.1 5.2-0.8 11.1-1.6 13-1.9 1.9-0.2 5.8-0.7 8.5-1 2.8-0.3 5.7-0.6 6.5-0.7 0.8 0 8-0.6 16-1.4 8-0.7 18.8-1.6 24-1.8 5.2-0.3 24.3-0.6 42.5-0.6 18.2 0 35.5 0.2 38.5 0.5 3 0.2 9.1 0.7 13.5 0.9 4.4 0.3 14.1 1.2 21.5 2 7.4 0.8 13.7 1.4 14 1.3 0.3 0 1.8 0.2 3.5 0.6 1.7 0.4 5.7 1 9 1.3 3.3 0.3 7.3 0.8 9 1 1.7 0.2 5 0.8 7.5 1.3 2.5 0.5 6.5 1.1 9 1.4 2.5 0.3 5.2 0.8 6 1.1 0.8 0.3 3.3 0.8 5.5 1 2.2 0.3 7.8 1.4 12.5 2.5 4.7 1 9.8 2.2 11.5 2.5 1.7 0.3 6.4 1.4 10.5 2.5 4.1 1.1 8.3 1.8 9.3 1.5q1.7-0.4 1 0.8-0.8 1.3 0.7 0.6c0.8-0.4 2-0.3 2.5 0.2 0.5 0.5 2.3 1.1 4 1.3 1.7 0.3 4.2 0.9 5.8 1.6 1.5 0.6 4.8 1.3 7.5 1.6 2.6 0.3 7.2 1.3 10.2 2.1 3 0.9 6 1.7 6.5 1.8 0.5 0.1 1.5 0.4 2 0.8 0.5 0.3 3.7 1.3 7 2.3 3.3 0.9 6.5 1.8 7 1.9 0.5 0.1 1.5 0.4 2 0.7 0.5 0.4 4.8 1.9 9.5 3.4 4.7 1.5 9 2.9 9.5 2.9 0.5 0.1 2 0.7 3.3 1.4 1.2 0.7 3 1.4 4 1.6 0.9 0.1 3.5 1.1 5.7 2.1 2.2 0.9 4.5 1.8 5 2 0.5 0.1 2.8 1 5 2 2.2 0.9 4.5 1.8 5 1.9 0.5 0.1 2 0.7 3.3 1.4 1.2 0.7 2.2 0.9 2.2 0.5 0-0.5 0.4-0.3 0.8 0.2 0.4 0.6 4.3 2.6 8.7 4.5 4.4 1.9 8.2 3.3 8.5 3.2 0.3-0.2 0.7 0 1 0.5 0.3 0.4 3.8 2.4 7.9 4.3 4.1 1.9 7.8 3.4 8.3 3.3 0.4-0.2 0.8 0.1 0.8 0.7 0 0.6 0.5 0.8 1 0.5 0.5-0.3 1-0.2 1 0.3 0 0.4 2.1 1.7 4.7 3 2.7 1.3 5.3 2.2 5.8 2.2 0.5-0.1 1.2 0.3 1.5 0.8 0.3 0.5 3 2.2 6 3.8 3 1.5 5.8 2.7 6.3 2.6 0.4-0.1 0.7 0.2 0.7 0.8 0 0.6 0.5 0.8 1 0.5 0.5-0.3 1.1-0.1 1.3 0.3 0.1 0.4 2.3 2 5 3.5 2.6 1.5 4.7 2.5 4.7 2.2 0-0.3 1 0.4 2.3 1.5 1.2 1.1 2.5 2 3 2 0.4 0 1 0 1.5-0.1 0.4 0 0.9 0.4 1.2 0.9 0.3 0.5 3.5 2.8 7.3 5.1 3.7 2.2 6.7 3.9 6.7 3.6 0-0.3 1 0.4 2.3 1.5 1.2 1.1 2.8 2 3.5 2 0.6 0 1.2 0.4 1.2 1 0 0.6 0.5 0.8 1 0.5 0.5-0.3 1.2-0.1 1.5 0.5 0.3 0.6 4.5 3.7 9.5 7 5 3.3 9 5.7 9 5.3 0-0.5 0.5 0 1 1 0.6 0.9 1.5 1.5 2 1.2 0.5-0.3 1-0.2 1 0.3-0.1 0.4 1.6 1.9 3.7 3.3 2.1 1.4 4.1 2.7 4.6 2.7 0.4 0.1 1.3 0.8 2 1.6 0.6 0.7 5.7 4.6 11.2 8.6 5.5 4 12.1 9 14.8 11.2 2.6 2.1 4.7 3.5 4.7 3.1-0.1-0.5 0.8 0.4 2 2 1.1 1.5 2.3 2.5 2.8 2.2 0.4-0.2 1.5 0.7 2.5 2 0.9 1.4 2 2.3 2.5 2 0.4-0.2 1.5 0.7 2.5 2 0.9 1.4 2 2.5 2.5 2.5 0.4 0 3.9 2.9 7.7 6.5 3.8 3.5 7.2 6.5 7.5 6.5 0.3-0.1 2.8 2.1 5.6 4.7 2.8 2.6 8.2 7.8 12 11.5 3.8 3.7 7.5 6.7 8.2 6.8 0.6 0 1.5 0.6 2 1.3 0.4 0.8 2.5 3.4 4.6 5.8 2.1 2.4 3.5 3.7 3 2.9-0.6-1.1-0.5-1.3 0.4-0.7 0.6 0.4 1.2 1 1.2 1.5 0 0.4 3.3 4.3 7.3 8.7 4.8 5.2 7.6 7.6 8 6.8 0.4-0.7 0.1-1.9-0.6-2.5-0.7-0.7-1.6-2-1.9-2.8-0.3-0.8-5.9-7.6-12.4-15-6.5-7.4-21.1-22.7-32.4-34-11.3-11.3-26.3-25.6-33.5-31.9-7.2-6.3-20.7-17.5-30-25-9.3-7.5-22.4-17.5-29-22.2-6.6-4.8-18.1-12.7-25.5-17.6-7.4-5-22.3-14.3-33-20.7-10.7-6.4-32.3-18.1-48-25.9-15.7-7.8-35.5-17.1-44-20.6-8.5-3.5-22-8.8-30-11.8-8-2.9-21.7-7.5-30.5-10.3-8.8-2.7-17-5-18.2-5-1.3 0-8-1.6-15-3.6-7.1-2-20.5-5.4-29.8-7.5-9.3-2.2-25.5-5.6-36-7.5-10.5-1.9-27.5-4.6-38-5.9-10.5-1.4-26.4-3.2-35.5-4.1-10.6-1-30.5-1.7-55.5-1.9-21.5-0.2-44.2 0-50.5 0.5z"/>
		<path id="Path 2" class="s2" d="m1034 322.1c-6.3 0.5-18.3 1.6-26.5 2.4-8.3 0.9-22.9 2.7-32.5 4.1-9.6 1.3-25.4 4-35 6-9.6 1.9-25.6 5.5-35.5 8-9.9 2.5-21.8 5.6-26.5 7-4.7 1.4-16.1 5-25.5 8.1-9.4 3.1-22.6 7.7-29.5 10.3-6.9 2.6-19.3 7.6-27.5 11.1-8.3 3.4-24.2 10.9-35.5 16.4-11.3 5.6-26.8 13.7-34.5 18-7.7 4.3-18.7 10.8-24.5 14.3-5.8 3.6-17.3 11-25.5 16.5-8.3 5.6-22.4 15.7-31.5 22.5-9.1 6.9-21.9 17-28.5 22.6-6.6 5.6-17.6 15.3-24.4 21.6-6.9 6.3-19.1 18.2-27.2 26.5-8 8.2-18.2 19-22.6 24-4.4 5-12.2 14.2-17.4 20.5-5.3 6.3-14.3 17.8-20.1 25.5-5.8 7.7-15.1 20.7-20.6 29-5.5 8.2-14.3 22.2-19.6 31-5.3 8.8-14.1 24.5-19.6 35-5.5 10.5-13.4 26.6-17.5 36-4.2 9.3-10.1 23.1-13 30.5-2.9 7.4-7.6 19.8-10.3 27.5-2.7 7.7-6.8 20.1-9 27.5-2.2 7.4-5.6 19.8-7.6 27.5-1.9 7.7-4.8 20.1-6.5 27.5-1.6 7.4-4.1 20.2-5.5 28.5-1.4 8.2-3.2 20.4-4.1 27-0.8 6.6-2.2 19-3.1 27.5-0.9 8.8-1.8 30.7-2.1 50.5-0.4 22.3-0.1 42.1 0.6 54.5 0.7 10.7 2.1 27.2 3.2 36.5 1.1 9.3 2.6 21.7 3.5 27.5 0.8 5.8 3.3 19.5 5.5 30.5 2.2 11 6.3 28.8 9 39.5 2.8 10.7 7.8 27.8 11.1 38 3.3 10.2 8.4 24.8 11.3 32.5 2.9 7.7 8.3 21 12 29.5 3.7 8.5 9.6 21.3 13.1 28.5 3.4 7.2 9.5 19.1 13.5 26.5 3.9 7.4 11.2 20.2 16.2 28.5 4.9 8.2 14 22.4 20.1 31.5 6.2 9.1 15.7 22.3 21.1 29.5 5.4 7.2 14.1 18.2 19.3 24.5 5.2 6.3 14.7 17.3 21.2 24.5 6.5 7.2 20 21.1 30.1 31 10.1 9.9 24.5 23.2 31.9 29.6 7.4 6.3 16.9 14.2 21 17.5 4.1 3.4 13.6 10.6 21 16.1 7.4 5.5 20.9 15 30 21 9.1 6 22.6 14.6 30 19 7.4 4.4 18.5 10.8 24.5 14.1 6 3.4 18.9 9.9 28.5 14.6 9.6 4.6 25.6 11.9 35.5 16.1 9.9 4.2 27.9 11.2 40 15.5 12.1 4.3 30.8 10.3 41.5 13.3 10.7 3.1 25.1 6.9 32 8.5 6.9 1.7 19.5 4.4 28 6.1 8.5 1.7 22.9 4.2 32 5.6 9.1 1.4 25.7 3.4 37 4.5 11.3 1.1 30.8 2.5 43.5 3.1 13.1 0.7 32.3 0.9 44.5 0.5 11.8-0.4 30.4-1.3 41.3-2.1 10.8-0.8 26.8-2.4 35.5-3.5 8.6-1.1 23.6-3.4 33.2-5.1 9.6-1.6 23.6-4.3 31-5.9 7.4-1.7 22-5.3 32.5-8 10.5-2.8 28.9-8.4 41-12.5 12.1-4 29-10.1 37.5-13.5 8.5-3.4 21.1-8.7 28-11.7 6.9-3.1 21.3-10 32-15.4 10.7-5.4 25.1-13 32-16.9 6.9-4 18.3-10.8 25.5-15.3 7.2-4.5 18.6-11.9 25.5-16.6 6.9-4.7 18.3-12.9 25.5-18.2 7.2-5.4 14.1-10.7 15.5-11.7 1.4-1.1 2-2.2 1.5-2.5-0.5-0.3-6.8 3.5-14 8.5-7.2 4.9-18.8 12.6-26 17.1-7.2 4.4-17 10.4-22 13.2-5 2.8-11.9 6.7-15.5 8.7-3.6 2-11.5 6-17.5 9.1-6 3-13.9 6.8-17.5 8.5-3.6 1.7-9.2 4.2-12.5 5.7-3.3 1.5-11.4 4.9-18 7.5-6.6 2.7-15.8 6.3-20.5 8.1-4.7 1.7-14.6 5.1-22 7.6-7.4 2.4-19.8 6.2-27.5 8.4-7.7 2.2-21.9 5.8-31.5 8-9.6 2.2-20.9 4.7-25 5.4-4.1 0.8-18.1 3-31 4.9-15.9 2.4-31.9 4-49.5 5.1-14.3 0.8-34.3 1.5-44.5 1.5-10.2 0-26.8-0.5-37-1-10.2-0.6-23.7-1.5-30-2.1-6.3-0.5-21.6-2.5-34-4.4-12.4-1.9-30.8-5.3-41-7.6-10.2-2.2-25.3-5.9-33.5-8.1-8.2-2.3-22.2-6.5-31-9.3-8.8-2.9-20.3-6.9-25.5-8.8-5.2-2-14.9-5.8-21.5-8.5-6.6-2.8-15.1-6.3-19-7.9-3.9-1.7-14.2-6.6-23-11-8.8-4.4-20.7-10.6-26.5-13.8-5.8-3.2-15-8.5-20.5-11.8-5.5-3.3-15.6-9.6-22.5-14.1-6.9-4.4-17.5-11.6-23.5-16-6-4.3-14.8-10.8-19.5-14.4-4.7-3.6-14.8-11.9-22.5-18.3-7.7-6.4-18.7-16.1-24.5-21.5-5.7-5.5-14.9-14.4-20.3-19.9-5.5-5.5-14.2-14.7-19.5-20.5-5.2-5.8-14.3-16.3-20.2-23.5-5.8-7.2-13.5-16.8-17.1-21.5-3.5-4.7-9.2-12.3-12.5-17-3.3-4.7-9.4-13.7-13.5-20-4.2-6.3-11-17.1-15.1-24-4.2-6.9-11.1-19-15.4-27-4.3-8-10.9-21-14.7-29-3.8-8-8.7-18.8-10.9-24-2.2-5.2-5.3-12.9-7-17-1.6-4.1-5.3-14-8.2-22-3-8-7.6-22.2-10.4-31.5-2.8-9.3-6.6-23.3-8.6-31-1.9-7.7-5.4-23.5-7.6-35-2.3-11.5-5-28-6-36.5-1.1-8.5-2.6-22.3-3.5-30.5-0.8-8.3-2-24.9-2.4-37-0.6-13.1-0.6-31.1 0-44.5 0.5-12.4 1.3-27.2 1.9-33 0.6-5.8 1.9-18.4 3.1-28 1.1-9.6 2.9-22.5 4-28.5 1.1-6 3.1-16.6 4.5-23.5 1.4-6.9 3.9-18.1 5.6-25 1.6-6.9 5-19.3 7.3-27.5 2.4-8.3 6.2-20.4 8.5-27 2.3-6.6 6.7-18.5 9.7-26.5 3.1-8 8.2-20.4 11.3-27.5 3.2-7.2 9.8-21.1 14.7-31 4.9-9.9 12.1-23.4 15.8-30 3.8-6.6 9.8-16.7 13.3-22.5 3.6-5.8 9.7-15.2 13.5-21 3.9-5.8 10.7-15.5 15.1-21.5 4.4-6 12.5-16.7 18-23.6 5.6-6.9 15.6-18.9 22.2-26.5 6.7-7.6 21.3-22.9 32.5-33.9 11.2-11 26.9-25.5 34.9-32.1 8-6.7 20.6-16.8 28-22.5 7.4-5.7 20.9-15.4 30-21.5 9.1-6.1 21.7-14.2 28-18.1 6.3-3.8 15.3-9.2 20-11.8 4.7-2.7 17.7-9.5 29-15.1 11.3-5.7 23.9-11.7 28-13.4 4.1-1.7 14.5-6 23-9.5 8.5-3.5 24.5-9.3 35.5-13 11-3.7 28.3-8.9 38.5-11.6 10.2-2.7 27.3-6.7 38-9 10.7-2.2 31-5.5 45-7.4 14-1.8 31.3-3.9 38.5-4.6 8.1-0.8 27.6-1.3 51.5-1.2 28.6 0 42.6 0.4 54.5 1.7 8.8 0.9 24.3 2.8 34.5 4.1 10.2 1.4 22.1 3.2 26.5 4 4.4 0.8 15.4 3 24.5 4.9 9.1 2 22.6 5.1 30 7 7.4 1.9 14.8 4.2 16.5 5 1.7 0.9 9.1 3.5 16.5 6 7.4 2.4 21.4 7.4 31 11.1 9.6 3.7 25.6 10.3 35.5 14.7 9.9 4.4 26.1 12.1 36 17.2 9.9 5.1 24.6 13.2 32.8 17.9 8.1 4.8 20 12.2 26.5 16.4 6.4 4.2 14.9 9.9 18.7 12.7 3.8 2.7 11.3 8.1 16.5 12 5.2 3.9 14 10.7 19.4 15.1 5.5 4.4 13.8 11.4 18.5 15.5 4.7 4.1 16 13.8 25.1 21.6 9.1 7.7 17.6 14.7 19 15.4l2.5 1.4c-3.9-5.3-14.3-16.3-25.6-27.9-11.4-11.5-26-25.8-32.5-31.7-6.6-5.9-16.9-14.8-22.9-19.8-6-5.1-18-14.5-26.5-20.9-8.5-6.4-21.1-15.6-28-20.3-6.9-4.7-20.6-13.5-30.5-19.5-9.9-6-24.3-14.4-32-18.6-7.7-4.2-22.3-11.6-32.5-16.5-10.2-4.9-26.4-12.2-36-16.2-9.6-4-28.7-11-42.5-15.6-13.7-4.5-26.8-8.5-29-8.9-2.2-0.4-15.7-3.6-30-7.1-14.3-3.5-31.8-7.4-39-8.8-7.2-1.4-21.1-3.6-31-5-9.9-1.4-24.3-3.2-32-4.1-7.7-0.8-20.5-1.9-28.5-2.5-8-0.5-29.6-0.9-48-0.8-18.4 0-38.7 0.5-45 0.9z"/>
		<path id="Path 3" class="s3" d="m1044.5 309.1c-13.2 0.4-31.9 1.4-41.5 2.3-9.6 0.9-24.5 2.6-33 3.7-8.5 1.1-22.3 3.1-30.5 4.5-8.3 1.4-20.2 3.6-26.5 5-6.3 1.4-20.3 4.7-31 7.4-10.7 2.7-26.3 7-34.5 9.5-8.3 2.6-22 7.1-30.5 10.2-8.5 3-23.8 8.9-34 13-10.2 4.1-27.7 12-39 17.5-11.3 5.4-26.8 13.3-34.5 17.5-7.7 4.2-20.1 11.3-27.5 15.8-7.4 4.5-20.5 12.8-29 18.5-8.5 5.7-23.1 16-32.5 23-9.4 7-17.7 13.3-18.5 14.1-0.8 0.8-4.8 4.1-8.9 7.4-4.1 3.3-12.2 10.2-18 15.4-5.8 5.1-16.5 15-23.6 22-7.1 7-17 16.9-22 22.2-5 5.2-10.8 11.5-13 13.9-2.2 2.5-7 7.9-10.6 12-3.6 4.1-10.1 12-14.5 17.5-4.4 5.5-12.6 16.1-18.1 23.5-5.5 7.4-15.7 22-22.5 32.5-6.9 10.5-16.7 26.2-21.8 35-5.1 8.8-13.4 24.3-18.5 34.5-5.1 10.2-12.6 26.1-16.7 35.5-4.1 9.3-8.9 20.6-10.6 25-1.7 4.4-5.6 15-8.5 23.5-3 8.5-7.3 21.4-9.5 28.5-2.2 7.1-5.9 20-8.1 28.5-2.2 8.5-5.3 21.8-7 29.5-1.7 7.7-4.2 20.5-5.5 28.5-1.4 8-2.9 17.9-3.5 22-0.5 4.1-1.2 9.3-1.5 11.5-0.2 2.2-0.9 9.2-1.6 15.5-0.6 6.3-1.5 16.5-2 22.5-0.5 6-0.7 30.6-0.5 54.5 0.2 23.9 0.6 45.3 0.9 47.5 0.3 2.2 1 9 1.6 15 0.6 6 1.3 13 1.6 15.5 0.3 2.5 1.4 10.6 2.5 18 1 7.4 2.1 14.6 2.4 16 0.3 1.4 0.9 5.1 1.5 8.2 0.5 3.2 1.2 7 1.5 8.5 0.3 1.6 1 4.8 1.5 7.3 0.6 2.5 3.5 14.6 6.5 27 3 12.4 8.2 30.8 11.4 41 3.3 10.2 8.4 25.2 11.4 33.5 3 8.2 7.7 20.4 10.5 27 2.8 6.6 8.2 19 12.2 27.5 3.9 8.5 11.1 22.9 15.9 32 4.9 9.1 11.7 21.2 15.1 27 3.4 5.8 7 11.8 8.1 13.5 1 1.7 6.9 10.7 13.1 20 6.2 9.3 16.4 24 22.8 32.5 6.4 8.5 16.3 21.1 22 28 5.8 6.9 14.5 17 19.4 22.5 4.9 5.5 16.7 17.7 26 27 9.4 9.4 19.4 19.1 22.1 21.5 2.8 2.5 8.8 7.9 13.5 12 4.7 4.2 12.1 10.5 16.4 14 4.3 3.6 10.2 8.3 13 10.4 2.8 2.2 9.8 7.5 15.6 11.9 5.8 4.3 18.4 13.2 28 19.7 9.6 6.4 24.3 15.8 32.5 20.7 8.3 5 19.3 11.4 24.5 14.2 5.2 2.9 19 9.9 30.5 15.6 11.5 5.6 29.5 13.9 40 18.3 10.5 4.3 28.2 11.2 39.5 15.2 11.3 3.9 28.8 9.6 39 12.5 10.2 2.9 25.9 7.1 35 9.4 9.1 2.2 23.5 5.3 32 7 8.5 1.6 25.2 4.3 37 6 11.8 1.7 28.9 3.7 38 4.6 9.1 0.8 28 2 42 2.6 18.9 0.8 32.3 0.8 52 0 14.6-0.7 33.3-1.8 41.5-2.6 8.3-0.9 21.8-2.4 30-3.5 8.3-1.1 15.9-2.2 17-2.4 1.1-0.2 4.5-0.7 7.5-1.1 3-0.4 13.2-2.2 22.5-4 9.3-1.9 24.4-5.2 33.5-7.5 9.1-2.2 22.8-5.9 30.5-8.1 7.7-2.2 20.1-6.1 27.5-8.6 7.4-2.5 19.6-6.8 27-9.5 7.4-2.8 19.3-7.5 26.5-10.5 7.2-3 21.1-9.4 31-14.1 9.9-4.7 25.7-12.7 35-17.7 9.3-5.1 23.5-13.2 31.5-18 8-4.9 20.6-12.9 28-17.8 7.4-5 18.5-12.7 24.5-17.1 6-4.4 16.4-12.2 23-17.4 6.6-5.3 14.9-12.1 18.5-15.1 3.6-3.1 9.8-8.4 13.8-11.8 3.9-3.5 7-6.8 6.7-7.3-0.3-0.5-3.1 0.8-6.2 3.1-3.2 2.2-11.1 7.6-17.5 12-6.5 4.3-12.1 8.5-12.5 9.1-0.6 1-0.4 1 0.7 0.3 1.1-0.7 1.3-0.7 0.7 0.2-0.4 0.7-1.5 1.2-2.4 1-1-0.1-1.8 0.3-1.8 0.8 0 0.5-0.4 1.6-0.8 2.2-0.4 0.7-1.2 1.3-1.7 1.3-0.5 0-0.7-0.6-0.3-1.3q0.8-1.2-0.5-0.5c-0.6 0.5-1 1.3-0.7 1.8 0.3 0.5-4.6 4.7-10.7 9.3-6.2 4.6-16.9 12.1-23.8 16.8-6.9 4.7-18.3 12.1-25.5 16.6-7.2 4.5-18.6 11.3-25.5 15.3-6.9 3.9-21.3 11.5-32 16.9-10.7 5.4-25.1 12.3-32 15.4-6.9 3-19.5 8.3-28 11.7-8.5 3.4-25.4 9.5-37.5 13.5-12.1 4.1-30.5 9.7-41 12.5-10.5 2.7-25.1 6.3-32.5 8-7.4 1.6-21.4 4.3-31 5.9-9.6 1.7-24.6 4-33.3 5.1-8.6 1.1-24.6 2.7-35.5 3.5-10.8 0.8-29.4 1.7-41.2 2.1-12.2 0.4-31.4 0.2-44.5-0.5-12.7-0.6-32.2-2-43.5-3.1-11.3-1.1-27.9-3.1-37-4.5-9.1-1.4-23.5-3.9-32-5.6-8.5-1.7-21.1-4.4-28-6.1-6.9-1.6-21.3-5.4-32-8.5-10.7-3-29.4-9-41.5-13.3-12.1-4.3-30.1-11.3-40-15.5-9.9-4.2-25.9-11.5-35.5-16.1-9.6-4.7-22.5-11.2-28.5-14.6-6-3.3-17.1-9.7-24.5-14.1-7.4-4.4-20.9-13-30-19-9.1-6-22.6-15.5-30-21-7.4-5.5-16.9-12.7-21-16.1-4.1-3.3-13.6-11.2-21-17.5-7.4-6.4-21.8-19.7-31.9-29.6-10.1-9.9-23.6-23.8-30.1-31-6.5-7.2-16-18.2-21.2-24.5-5.2-6.3-13.9-17.3-19.3-24.5-5.4-7.2-14.9-20.4-21.1-29.5-6.1-9.1-15.2-23.3-20.1-31.5-5-8.3-12.3-21.1-16.2-28.5-4-7.4-10.1-19.3-13.5-26.5-3.5-7.2-9.4-20-13.1-28.5-3.7-8.5-9.1-21.8-12-29.5-2.9-7.7-8-22.3-11.3-32.5-3.3-10.2-8.3-27.3-11.1-38-2.7-10.7-6.8-28.5-9-39.5-2.2-11-4.7-24.7-5.5-30.5-0.9-5.8-2.4-18.2-3.5-27.5-1.1-9.3-2.5-25.8-3.2-36.5-0.7-12.4-1-32.2-0.6-54.5 0.3-19.8 1.2-41.7 2.1-50.5 0.9-8.5 2.3-20.9 3.1-27.5 0.9-6.6 2.7-18.8 4.1-27 1.4-8.3 3.9-21.1 5.5-28.5 1.7-7.4 4.6-19.8 6.5-27.5 2-7.7 5.4-20.1 7.6-27.5 2.2-7.4 6.3-19.8 9-27.5 2.7-7.7 7.4-20.1 10.3-27.5 2.9-7.4 8.8-21.1 13-30.5 4.1-9.4 12-25.5 17.5-36 5.5-10.5 14.3-26.2 19.6-35 5.3-8.8 14.1-22.8 19.6-31 5.5-8.3 14.8-21.3 20.6-29 5.8-7.7 14.8-19.2 20.1-25.5 5.2-6.3 13-15.5 17.4-20.5 4.4-5 14.6-15.8 22.6-24 8.1-8.3 20.3-20.2 27.2-26.5 6.8-6.3 17.8-16 24.4-21.6 6.6-5.6 19.4-15.7 28.5-22.6 9.1-6.8 23.3-16.9 31.5-22.5 8.3-5.5 19.7-12.9 25.5-16.5 5.8-3.5 16.8-10 24.5-14.3 7.7-4.3 23.2-12.4 34.5-18 11.3-5.5 27.3-13 35.5-16.4 8.3-3.5 20.6-8.5 27.5-11.1 6.9-2.6 20.1-7.2 29.5-10.3 9.4-3.1 20.8-6.7 25.5-8.1 4.7-1.4 16.6-4.5 26.5-7 9.9-2.5 25.9-6.1 35.5-8 9.6-2 25.4-4.7 35-6 9.6-1.4 24.3-3.2 32.5-4.1 8.3-0.8 21.3-1.9 29-2.5 7.7-0.5 28-1 45-1 17 0 37.5 0.5 45.5 1 8 0.6 20.8 1.7 28.5 2.5 7.7 0.9 22.1 2.7 32 4.1 9.9 1.4 23.8 3.6 31 5 7.2 1.4 24.7 5.3 39 8.8 14.3 3.5 27.8 6.7 30 7.1 2.2 0.4 15.3 4.4 29 8.9 13.8 4.6 32.9 11.6 42.5 15.6 9.6 4 25.8 11.3 36 16.2 10.2 4.9 24.8 12.3 32.5 16.5 7.7 4.2 22.1 12.6 32 18.6 9.9 6 23.6 14.8 30.5 19.5 6.9 4.7 19.5 13.9 28 20.3 8.5 6.4 20.5 15.8 26.5 20.9 6 5 16.3 13.9 22.9 19.8 6.5 5.9 21.1 20.2 32.5 31.7 11.3 11.6 21.7 22.6 23.1 24.5 1.4 1.9 1.8 3 1 2.5-1.1-0.7-1.3-0.7-0.7 0.2 0.4 0.7 1.2 1.3 1.7 1.3 0.5 0 1-0.7 1-1.5 0-0.8-2.2-5-4.8-9.3-3.5-5.6-10.2-13.1-24.3-27.2-10.7-10.7-25.9-25.3-33.9-32.4-8-7.1-21-18.2-29-24.6-8-6.4-20.6-16.1-28-21.5-7.4-5.5-21.2-14.9-30.5-21.1-9.3-6.1-23.8-15.1-32-19.9-8.3-4.9-24.9-13.9-37-20.1-12.1-6.2-28.3-14.1-36-17.5-7.7-3.4-21.2-9-30-12.4-8.8-3.5-25.9-9.5-38-13.4-12.1-3.9-23.8-7.4-26-7.7-2.2-0.3-14.6-3.2-27.5-6.4-12.9-3.2-30.7-7.2-39.5-8.9-8.8-1.7-23.9-4.2-33.5-5.6-9.6-1.3-24-3.1-32-3.9-8-0.8-21.9-2-31-2.6-9.1-0.5-22.8-1.1-30.5-1.3-7.7-0.1-24.8 0.1-38 0.4z"/>
		<path id="Path 4" class="s0" d="m1020 992.1c-1.9 0.5-19.3 2.3-38.5 3.9-19.3 1.7-90.1 8.2-157.5 14.6-67.4 6.3-123.6 11.4-125 11.3-1.4-0.1-4 0.1-5.8 0.4-1.7 0.4-3.1 1.2-3 1.8 0.2 0.7 7.5 3.7 16.3 6.9 8.8 3.1 29.5 10.3 46 16 16.5 5.7 30.7 10.3 31.5 10.2 0.8 0 16.6 5.2 35 11.5 18.4 6.4 34.2 12.1 35 12.8 0.8 0.7 16.6 6.5 35 13 18.4 6.4 34 11.5 34.5 11.3 0.5-0.3 22.8-25.3 49.5-55.7 26.7-30.3 48.6-55 48.7-54.8 0.1 0.1 0.3 13.2 0.5 29.2 0.1 16 0.5 33.3 0.8 38.5 0.4 5.2 0.7-8.8 0.8-31.3 0.1-22.4 0.1-40.6-0.1-40.6-0.1 0.1-1.8 0.5-3.7 1zm3.4 100.4c0 9.9 0.2 13.7 0.3 8.5 0.2-5.2 0.2-13.3 0-18-0.1-4.7-0.3-0.4-0.3 9.5zm0 53.5c0 6.3 0.1 8.8 0.3 5.5 0.2-3.3 0.2-8.5 0-11.5-0.2-3-0.3-0.3-0.3 6zm0 186.5c0 12.7 0.2 17.6 0.3 11 0.2-6.6 0.2-17 0-23-0.1-6-0.3-0.7-0.3 12z"/>
		<path id="Path 5" class="s1" d="m1016.8 670.3c-3.1 9.4-14.9 46.2-26.2 81.7-11.3 35.5-27.7 86.8-36.5 114l-16.1 49.5c3.5 2.8 6.5 5.4 9 7.7 2.5 2.2 6.3 5.6 8.5 7.5 2.2 2 6.1 5.4 8.7 7.7 2.5 2.2 6.5 5.7 8.8 7.6 2.3 1.9 5.8 5.2 7.8 7.3 2.1 2.1 4 3.7 4.5 3.7 0.4 0 2.4 1.7 4.5 3.8 2.1 2 5.9 5.5 8.4 7.7 2.5 2.2 6.3 5.6 8.5 7.5 2.2 1.9 6.1 5.3 8.7 7.5 2.6 2.2 5.6 4.9 6.7 6 1.9 2 1.9 6.4 1.5 196.5-0.3 107-0.5 215.4-0.6 241-0.1 25.6 0.3 46.6 0.7 46.8 0.4 0.1 18.8-64 40.7-142.5 22-78.6 45-161 51.2-183.3l11.2-40.5c-14.1-16.3-18.5-21.2-18.8-21.5-0.3-0.3-6-6.8-12.5-14.5-6.6-7.7-12.2-14.2-12.5-14.5-0.3-0.3-7.3-8.4-15.5-18-8.2-9.6-15.2-17.7-15.5-18-0.3-0.3-6-6.8-12.5-14.5-6.5-7.7-12.4-14.6-13.2-15.2-1.1-1.1-1.3-31.1-1-169.8 0.2-151.5 0-168.5-1.3-168.5-1.2 0-3.2 4.8-7.2 17.3z"/>
		<path id="Path 6" class="s4" d="m1031.7 994c-2.3 0.5 1 4.5 44.5 55 25.8 30 47.8 55.4 48.8 56.5 1.9 2 2 2 34.7-9.4 18-6.3 34.8-12.5 37.3-13.7 2.5-1.2 18.5-7.1 35.5-13 17-5.9 32.3-10.9 34-11.1 1.7-0.1 22.3-7 46-15.3 23.7-8.2 43.2-15.2 43.5-15.5 0.3-0.3 0.3-0.7 0-1-0.3-0.3-14.9-2-32.5-3.9-17.6-1.9-34.9-3.7-38.5-4.1-3.6-0.3-8.1-0.8-10-1-1.9-0.2-6.4-0.7-10-1-3.6-0.3-8.1-0.8-10-1-1.9-0.3-6-0.7-9-1-3-0.3-7.1-0.8-9-1-1.9-0.3-21-2.2-42.5-4.4-21.5-2.1-39.9-3.9-41-4-1.1-0.1-4.5-0.4-7.5-0.7-3-0.3-7.5-0.7-10-1-2.5-0.2-14.8-1.5-27.5-2.9-12.7-1.3-24.5-2.6-26.3-2.9-2-0.4-3-0.2-2.7 0.4 0.3 0.5-0.2 1-1 1-0.8 0-1.6-0.4-1.8-0.8-0.1-0.5-1.9-1.2-4-1.5-2.3-0.5-3.5-0.3-3.2 0.3 0.3 0.5-0.4 1-1.5 1-1.1 0-1.8-0.5-1.5-1 0.3-0.5-1-1.1-2.9-1.3-1.9-0.1-3.2 0.1-3 0.5 0.2 0.5-0.7 0.8-2.1 0.8-1.4 0-2.6-0.4-2.8-0.8-0.1-0.5-1.4-1.2-3-1.5-1.7-0.5-2.5-0.3-2.2 0.3 0.3 0.5-0.1 1-0.8 1-0.6 0-2.9-0.6-5-1.5-2-0.8-3.9-1.5-4.2-1.5-0.3 0-0.3 0.5 0 1 0.3 0.5-0.2 1-1 1-0.8 0-2.3-0.4-3.4-0.8-1-0.4-3-0.5-4.4-0.2z"/>
		<path id="Path 7" class="s3" d="m935.5 917.4c-1.1 0.7-55.9 24.4-121.7 52.7-65.8 28.3-119.4 51.6-119.1 51.9 0.2 0.3 2.1 0.4 4.1 0.2 2-0.1 53.9-5 115.2-10.7 61.3-5.8 133.3-12.5 160-15 26.7-2.4 48.6-4.7 48.7-5 0.2-0.3-1.6-2.2-3.9-4.2-2.3-2.1-5.1-4.7-6.3-5.8-1.1-1.1-4.5-4-7.5-6.5-3-2.5-7.9-6.9-11-9.7-3-2.9-6-5.3-6.5-5.3-0.5 0-2.4-1.6-4-3.5-1.6-2-3.5-3.5-4-3.5-0.5 0-2.6-1.8-4.5-4-1.9-2.3-3.8-4.1-4.3-4-0.4 0-2.5-1.7-4.6-3.7-2.1-2.1-5.9-5.6-8.4-7.8-2.5-2.2-6.6-5.8-9.2-8-2.6-2.2-6-5.2-7.6-6.7-1.6-1.6-3-2.8-3.2-2.7-0.1 0-1.1 0.6-2.2 1.3zm176.4 1.4c-0.8 0.9-20.2 17.3-43.2 36.4-22.9 19.1-41.9 35.3-42.2 35.8-0.3 0.5 0.2 1 1 1 0.8 0 7.5 0.7 14.7 1.5 7.3 0.8 57.6 6 111.8 11.5 54.2 5.5 121.7 12.4 150 15.5 28.3 3 51.7 5.9 52 6.4 0.3 0.5 1.5 0.5 2.7 0 1.3-0.5 2.2-1.3 2.2-1.7-0.1-0.5-18.9-9-41.8-18.9-22.9-10-75.1-32.6-116.1-50.3-41-17.8-77.9-33.7-82.1-35.5-6.9-2.9-7.8-3.1-9-1.7z"/>
		<path id="Path 8" class="s5" d="m1026 657.7c-1.2 0.4-1.4 26.6-1.2 166.4 0.1 91.2 0.5 166.1 0.9 166.2 0.5 0.2 20.2-15.9 44-35.7 23.8-19.9 43.2-36.8 43.3-37.6 0-0.8-5.2-17.7-11.6-37.5-6.3-19.8-23-71.1-37.1-114-14-42.9-28-84.8-31-93-3-8.3-5.5-15-5.7-15.1-0.1-0.1-0.9 0.1-1.6 0.3zm-53.6 393.1l-49 55.7c7.3 28.7 17.3 66 26.9 101.5 9.6 35.5 29.5 109.2 44.3 163.7 14.8 54.6 27.2 99.3 27.7 99.3 0.4 0 0.7-56.8 0.7-126.3 0-69.4 0-156.6 0-193.7 0-37.1-0.3-87.3-0.6-111.5-0.4-24.2-0.8-44.1-0.9-44.2-0.1-0.2-22.2 24.8-49.1 55.5z"/>
	</g>
</svg>